<?xml version="1.0" encoding="utf-8"?>
<!-- Generator: Adobe Illustrator 16.0.0, SVG Export Plug-In . SVG Version: 6.00 Build 0)  -->
<!DOCTYPE svg PUBLIC "-//W3C//DTD SVG 1.1//EN" "http://www.w3.org/Graphics/SVG/1.1/DTD/svg11.dtd">
<svg version="1.1" id="Layer_1" xmlns="http://www.w3.org/2000/svg" xmlns:xlink="http://www.w3.org/1999/xlink" x="0px" y="0px"
	 width="48px" height="48px" viewBox="0 0 48 48" enable-background="new 0 0 48 48" xml:space="preserve">
<g>
	<g>
		<path fill="#E5B5BA" d="M25.992,34.924c-0.037-0.057,0.008-0.1,0.027-0.141c0.836-1.793,0.596-3.492-0.434-5.131
			c-0.32-0.514-0.771-0.896-1.203-1.305c-0.943-0.892-1.789-1.863-2.412-3.013c-0.354-0.653-0.609-1.341-0.641-2.094
			c-0.035-0.858,0.254-1.595,0.844-2.208c0.893-0.928,1.775-1.862,2.525-2.912c0.35-0.489,0.676-0.992,0.865-1.568
			c0.041-0.123,0.057-0.254,0.088-0.396c0.389,0.223,0.615,0.56,0.738,0.971c0.188,0.627,0.094,1.246-0.084,1.857
			c-0.223,0.768-0.566,1.483-1.002,2.148c-0.463,0.708-0.52,1.446-0.279,2.229c0.197,0.641,0.523,1.211,0.955,1.771
			c0-0.115,0.002-0.195,0-0.277c-0.035-1.123,0.104-2.213,0.631-3.225c0.477-0.916,1.213-1.525,2.234-1.834
			c-0.105,0.301-0.184,0.582-0.223,0.874c-0.129,1.007,0.055,1.968,0.43,2.899c0.197,0.494,0.449,0.96,0.736,1.408
			c0.5,0.78,0.799,1.627,0.809,2.563c0.006,0.838-0.217,1.625-0.57,2.377c-0.549,1.16-1.326,2.158-2.174,3.107
			c-0.592,0.662-1.223,1.283-1.865,1.893L25.992,34.924z"/>
		<path fill="#E5B5BA" d="M22.342,34.125c-0.5-0.256-0.951-0.582-1.383-0.939c-1.102-0.912-1.895-2.031-2.232-3.439
			c-0.311-1.281-0.195-2.549,0.168-3.803c0.238-0.83,0.582-1.618,1.018-2.364c0.027-0.046,0.041-0.106,0.102-0.129l-0.002-0.004
			c-0.035,0.3-0.09,0.595-0.055,0.899c0.084,0.713,0.355,1.354,0.719,1.963c0.582,0.975,1.34,1.805,2.166,2.574
			c1.014,0.943,1.766,2.045,2.057,3.422c0.193,0.918,0.158,1.826-0.117,2.725c-0.014,0.045-0.029,0.086-0.047,0.129
			c-0.006,0.016-0.016,0.029-0.033,0.057c-0.426-0.32-0.799-0.693-1.148-1.092c-1.023-1.156-1.848-2.449-2.607-3.787
			c-0.18-0.316-0.348-0.643-0.521-0.963c-0.018-0.033-0.021-0.08-0.08-0.094c-0.092,0.342-0.041,0.678,0.035,1.008
			c0.211,0.92,0.656,1.736,1.135,2.535c0.264,0.441,0.559,0.863,0.855,1.281C22.357,34.109,22.35,34.117,22.342,34.125z"/>
		<path fill="#E5B5BA" d="M23.738,11.126c0.605,0.735,0.996,1.567,1.146,2.508c0.23,1.448-0.203,2.72-1.053,3.873
			c-0.66,0.894-1.49,1.606-2.395,2.239c-0.057,0.039-0.096,0.077-0.137-0.023c-0.404-0.981-0.615-1.986-0.365-3.043
			c0.15-0.633,0.492-1.15,1-1.556c1.014-0.81,1.602-1.856,1.768-3.142C23.742,11.702,23.746,11.416,23.738,11.126z"/>
	</g>
	<g>
		<g>
			<path fill="#ABABD8" d="M17.777,3.646c0.098-0.062,0.141-0.063,0.201,0.047c0.166,0.3,0.346,0.591,0.518,0.888
				c0.043,0.076,0.08,0.099,0.17,0.065c1.016-0.371,2.055-0.654,3.123-0.826c0.105-0.018,0.117-0.079,0.123-0.165
				c0.047-0.724,0.098-1.447,0.145-2.171c0.035-0.522,0.072-0.842,0.102-1.363c0.006-0.098,0.041-0.119,0.131-0.119
				C23.342,0.005,24.395,0.007,25.447,0c0.135-0.001,0.143,0.066,0.15,0.16c0.047,0.515,0.094,0.828,0.139,1.343
				c0.061,0.655,0.121,1.312,0.176,1.966c0.008,0.096,0.043,0.119,0.133,0.125c1.242,0.088,2.467,0.285,3.664,0.631
				c0.109,0.03,0.139-0.033,0.18-0.103c0.488-0.847,1.016-1.825,1.5-2.674c0.068-0.121,0.133-0.142,0.266-0.108
				c0.943,0.236,1.828,0.686,2.725,1.063c0.129,0.054,0.172,0.103,0.129,0.253c-0.287,1.016-0.559,2.036-0.842,3.053
				c-0.027,0.101-0.016,0.147,0.076,0.201c1.043,0.586,2.012,1.278,2.912,2.063c0.088,0.077,0.137,0.071,0.223,0
				c0.836-0.709,1.68-1.412,2.516-2.123c0.092-0.078,0.139-0.082,0.23,0.004c0.74,0.711,1.527,1.334,2.146,2.152
				c0.074,0.098,0.076,0.155-0.006,0.251c-0.602,0.722-1.301,1.582-1.893,2.312c-0.086,0.106-0.133,0.121-0.248,0.033
				c-2.223-1.74-4.717-2.912-7.486-3.457c-3.979-0.785-7.813-0.322-11.461,1.461c-3.594,1.758-6.303,4.436-8.14,7.984
				c-1.02,1.967-1.631,4.057-1.867,6.26c-0.096,0.885-0.113,1.772-0.09,2.661c0.002,0.034,0,0.067,0,0.101
				c-0.271-0.59-0.477-1.199-0.648-1.819c-0.383-1.377-0.604-2.776-0.645-4.207c-0.127-4.226,1.227-8.544,3.582-11.435
				C15.223,5.262,17.777,3.646,17.777,3.646z"/>
			<path fill="#ABABD8" d="M13.945,4.729c-0.195-0.748-0.377-1.459-0.564-2.17c-0.02-0.08,0.002-0.121,0.078-0.152
				c0.947-0.395,1.896-0.788,2.84-1.188c0.09-0.038,0.117-0.002,0.152,0.063c0.137,0.237,0.273,0.478,0.42,0.711
				c0.055,0.086,0.025,0.12-0.045,0.17c-0.867,0.618-1.67,1.313-2.414,2.073C14.262,4.391,14.113,4.55,13.945,4.729z"/>
		</g>
		<g>
			<path fill="#ABABD8" d="M30.227,44.354c-0.1,0.063-0.143,0.063-0.201-0.045c-0.166-0.301-0.348-0.592-0.518-0.889
				c-0.045-0.076-0.08-0.1-0.172-0.064c-1.016,0.371-2.055,0.652-3.123,0.826c-0.104,0.018-0.115,0.078-0.121,0.164
				c-0.049,0.725-0.098,1.447-0.146,2.172c-0.035,0.52-0.07,0.84-0.1,1.361c-0.008,0.098-0.041,0.119-0.133,0.119
				c-1.053-0.004-2.105-0.006-3.158,0.002c-0.133,0-0.141-0.066-0.15-0.16c-0.045-0.516-0.092-0.826-0.139-1.344
				c-0.059-0.654-0.119-1.311-0.174-1.967c-0.008-0.094-0.043-0.117-0.133-0.125c-1.242-0.086-2.467-0.283-3.666-0.629
				c-0.107-0.031-0.137,0.031-0.178,0.102c-0.49,0.846-1.016,1.824-1.5,2.674c-0.07,0.121-0.133,0.143-0.266,0.107
				c-0.943-0.234-1.828-0.686-2.725-1.061c-0.127-0.055-0.17-0.104-0.127-0.254c0.285-1.016,0.559-2.035,0.84-3.053
				c0.027-0.1,0.016-0.148-0.076-0.201c-1.042-0.586-2.011-1.277-2.912-2.064c-0.088-0.076-0.137-0.07-0.223,0.002
				c-0.836,0.709-1.678,1.412-2.516,2.123c-0.092,0.078-0.139,0.082-0.23-0.004c-0.74-0.711-1.527-1.334-2.146-2.152
				c-0.072-0.098-0.076-0.154,0.006-0.252c0.602-0.721,1.301-1.582,1.893-2.311c0.086-0.107,0.133-0.121,0.246-0.033
				c2.225,1.74,4.721,2.912,7.488,3.457c3.979,0.783,7.814,0.322,11.461-1.463c3.592-1.756,6.301-4.436,8.143-7.984
				c1.018-1.965,1.629-4.057,1.865-6.258c0.098-0.888,0.115-1.773,0.09-2.664c0-0.032,0-0.065,0-0.1
				c0.271,0.59,0.477,1.201,0.648,1.821c0.383,1.377,0.604,2.776,0.646,4.206c0.127,4.227-1.227,8.545-3.582,11.436
				C32.779,42.74,30.227,44.354,30.227,44.354z"/>
			<path fill="#ABABD8" d="M34.059,43.273c0.193,0.748,0.377,1.459,0.563,2.17c0.021,0.08-0.002,0.121-0.078,0.152
				c-0.947,0.395-1.895,0.787-2.84,1.188c-0.09,0.037-0.115,0.002-0.152-0.063c-0.139-0.238-0.271-0.479-0.42-0.711
				c-0.055-0.088-0.025-0.121,0.045-0.17c0.867-0.617,1.67-1.313,2.414-2.074C33.742,43.611,33.889,43.451,34.059,43.273z"/>
		</g>
	</g>
	<g>
		<g>
			<path fill="#FFFFFF" d="M3.649,30.227c-0.063-0.1-0.064-0.143,0.045-0.201c0.301-0.166,0.592-0.348,0.889-0.52
				c0.076-0.043,0.098-0.08,0.064-0.172c-0.371-1.014-0.654-2.053-0.826-3.121c-0.018-0.104-0.078-0.115-0.164-0.122
				c-0.725-0.047-1.447-0.098-2.172-0.146c-0.521-0.035-0.84-0.071-1.363-0.102c-0.096-0.006-0.119-0.04-0.119-0.131
				C0.006,24.66,0.008,23.607,0,22.555c0-0.134,0.066-0.143,0.16-0.15c0.516-0.047,0.828-0.094,1.344-0.139
				c0.654-0.06,1.311-0.121,1.967-0.175c0.094-0.008,0.117-0.044,0.125-0.133c0.086-1.243,0.283-2.467,0.629-3.665
				c0.031-0.107-0.031-0.137-0.102-0.178c-0.846-0.49-1.826-1.016-2.674-1.501c-0.121-0.069-0.141-0.132-0.109-0.265
				c0.236-0.945,0.688-1.828,1.063-2.726c0.053-0.127,0.104-0.17,0.252-0.127c1.016,0.286,2.037,0.558,3.053,0.84
				c0.102,0.028,0.148,0.017,0.201-0.077c0.586-1.042,1.279-2.011,2.064-2.912c0.076-0.088,0.07-0.136,0-0.221
				C7.264,10.29,6.559,9.448,5.85,8.611C5.772,8.52,5.768,8.473,5.854,8.381c0.711-0.74,1.334-1.527,2.15-2.146
				c0.098-0.073,0.156-0.076,0.252,0.005c0.723,0.602,1.582,1.301,2.313,1.893c0.105,0.086,0.121,0.134,0.031,0.247
				c-1.74,2.225-2.91,4.719-3.457,7.488C6.36,19.844,6.821,23.68,8.606,27.329c1.756,3.591,4.434,6.3,7.982,8.14
				c1.967,1.02,4.059,1.631,6.262,1.867c0.885,0.096,1.771,0.113,2.662,0.09c0.031-0.002,0.066,0,0.1,0
				c-0.59,0.271-1.199,0.477-1.82,0.648c-1.375,0.381-2.777,0.604-4.207,0.645c-4.225,0.127-8.542-1.227-11.433-3.58
				C5.262,32.779,3.649,30.227,3.649,30.227z"/>
			<path fill="#FFFFFF" d="M4.729,34.059c-0.748,0.191-1.459,0.377-2.168,0.563c-0.08,0.021-0.121-0.002-0.154-0.078
				c-0.393-0.947-0.789-1.895-1.188-2.84c-0.037-0.09-0.002-0.115,0.063-0.152c0.238-0.137,0.477-0.271,0.709-0.42
				c0.088-0.055,0.121-0.023,0.17,0.045c0.619,0.867,1.314,1.67,2.074,2.414C4.391,33.74,4.549,33.889,4.729,34.059z"/>
		</g>
		<g>
			<path fill="#FFFFFF" d="M44.355,17.775c0.061,0.1,0.061,0.142-0.047,0.201c-0.299,0.166-0.592,0.348-0.889,0.519
				c-0.074,0.043-0.098,0.08-0.064,0.172c0.371,1.015,0.654,2.054,0.826,3.122c0.018,0.105,0.08,0.117,0.164,0.123
				c0.725,0.047,1.447,0.098,2.172,0.146c0.521,0.034,0.842,0.07,1.361,0.101c0.098,0.006,0.119,0.041,0.119,0.131
				c-0.004,1.053-0.006,2.104,0.002,3.158c0,0.134-0.064,0.143-0.16,0.151c-0.516,0.045-0.826,0.092-1.344,0.139
				c-0.652,0.059-1.309,0.119-1.965,0.174c-0.096,0.008-0.119,0.044-0.125,0.134c-0.088,1.242-0.285,2.468-0.631,3.665
				c-0.031,0.107,0.033,0.139,0.102,0.178c0.848,0.488,1.826,1.018,2.676,1.502c0.119,0.066,0.141,0.131,0.107,0.264
				c-0.236,0.945-0.686,1.828-1.063,2.725c-0.055,0.129-0.104,0.172-0.252,0.129c-1.018-0.287-2.037-0.559-3.055-0.842
				c-0.1-0.025-0.146-0.016-0.201,0.078c-0.586,1.041-1.277,2.01-2.063,2.912c-0.076,0.088-0.07,0.135,0.002,0.221
				c0.709,0.836,1.412,1.68,2.121,2.516c0.078,0.092,0.084,0.141-0.004,0.23c-0.711,0.74-1.334,1.527-2.152,2.146
				c-0.096,0.074-0.154,0.076-0.252-0.004c-0.721-0.604-1.582-1.303-2.311-1.895c-0.105-0.086-0.121-0.133-0.031-0.246
				c1.74-2.225,2.91-4.719,3.455-7.488c0.783-3.977,0.322-7.813-1.461-11.461c-1.758-3.592-4.436-6.3-7.984-8.14
				c-1.967-1.019-4.059-1.63-6.26-1.867c-0.887-0.095-1.773-0.114-2.662-0.089c-0.033,0.001-0.066,0-0.102,0
				c0.592-0.271,1.201-0.477,1.822-0.648c1.375-0.383,2.775-0.604,4.205-0.646c4.225-0.126,8.545,1.226,11.436,3.582
				C42.74,15.223,44.355,17.775,44.355,17.775z"/>
			<path fill="#FFFFFF" d="M43.273,13.943c0.748-0.193,1.459-0.377,2.17-0.563c0.08-0.021,0.121,0.001,0.152,0.078
				c0.395,0.947,0.789,1.895,1.188,2.84c0.037,0.09,0.002,0.116-0.063,0.152c-0.238,0.137-0.479,0.271-0.711,0.419
				c-0.086,0.055-0.119,0.026-0.17-0.044c-0.617-0.868-1.313-1.67-2.074-2.415C43.611,14.261,43.453,14.113,43.273,13.943z"/>
		</g>
	</g>
	<path fill="#9F1E23" d="M20.014,23.449c0.006-0.018,0.012-0.034,0.016-0.053c0.004,0.004,0.008,0.01,0.01,0.014
		c0,0.02,0.002,0.042-0.029,0.036L20.014,23.449z"/>
	<path fill="#9F1E23" d="M22.367,34.104c0.004,0.014,0.014,0.037,0.01,0.039c-0.018,0.01-0.029,0-0.035-0.02
		C22.35,34.117,22.357,34.109,22.367,34.104z"/>
	<path fill="#9F1E23" d="M25.99,34.92c-0.01,0.002-0.02,0.006-0.029,0.008c0.008-0.025,0.02-0.021,0.031-0.004L25.99,34.92z"/>
	<path fill="#FFFFFF" d="M25.041,44.088l-0.965-0.703l-0.967,0.703l0.371-1.135l-0.967-0.701l1.193,0.002l0.369-1.137l0.367,1.137
		l1.193-0.002l-0.967,0.701L25.041,44.088z M31.15,41.994l-0.965-0.701l-0.965,0.701l0.367-1.135l-0.965-0.701l1.193,0.002
		l0.367-1.137l0.369,1.137l1.191-0.002l-0.965,0.701L31.15,41.994z M35.51,38.115l-0.965-0.701l-0.967,0.701l0.371-1.135
		l-0.967-0.701l1.193,0.002l0.367-1.137l0.369,1.137l1.193-0.002l-0.967,0.701L35.51,38.115z"/>
	<g id="Layer_2" display="none">
	</g>
</g>
</svg>
